<?xml version="1.0" encoding="utf-8"?>
<!-- Svg Vector Icons : http://www.onlinewebfonts.com/icon -->
<!DOCTYPE svg PUBLIC "-//W3C//DTD SVG 1.1//EN" "http://www.w3.org/Graphics/SVG/1.1/DTD/svg11.dtd">
<svg version="1.1" xmlns="http://www.w3.org/2000/svg" xmlns:xlink="http://www.w3.org/1999/xlink" x="0px" y="0px" viewBox="0 0 1000 1000" enable-background="new 0 0 1000 1000" xml:space="preserve">
<metadata> Svg Vector Icons : http://www.onlinewebfonts.com/icon </metadata>
<g><g transform="translate(0.000000,511.000000) scale(0.100000,-0.100000)"><path d="M594.7,4513L100,4018.3L4505.3-387l4403-4403l497,497l494.7,494.7L5494.7,607l-4403,4403L594.7,4513z M9020.3-3910.3l-112-109.7L4890.3-2L870,4018.3l109.7,112l112,109.7l4018-4018L9130-3798.3L9020.3-3910.3z"/><path d="M8385.7,4856c-116.7-49-511-445.7-536.7-536.7c-56-198.3,105-511,438.7-858.7c361.7-373.3,735-574,942.7-506.3c98,32.7,434,373.3,504,513.3C9858,3705.7,9767,3939,9410,4317C8922.3,4830.3,8651.7,4972.7,8385.7,4856z"/><path d="M7200.3,3722c-219.3-224-357-380.3-366.3-422.3c-81.7-338.3,609-1150.3,1129.3-1327.7c235.7-81.7,261.3-67.7,672,338.3L8990,2665h-133c-177.3,0-371,93.3-637,308c-373.3,303.3-660.3,728-662.7,980c-2.3,67.7-2.3,123.7-2.3,123.7C7552.7,4076.7,7394,3915.7,7200.3,3722z"/><path d="M5875,2396.7L5198.3,1720l711.7-711.7l711.7-711.7L7303,978l683.7,683.7h-147c-121.3,2.3-170.3,16.3-308,88.7c-480.6,254.3-975.3,861-977.7,1197c-2.3,67.7-2.3,126-2.3,126S6246,2767.7,5875,2396.7z"/><path d="M2557-921.3c-625.3-630-823.7-840-835.3-896c-18.7-91,44.3-280,154-466.7c102.7-177.4,553-630,732.7-737.4c77-46.7,196-102.7,261.3-123.7c238-77,203-102.7,1122.3,812l821.3,821.3L4108.7-807C3719-417.3,3397-100,3390-100S3009.7-471,2557-921.3z"/><path d="M828-3488c-336-644-609-1171.3-606.7-1173.7c4.7-4.7,779.3,399,2268,1180.7l91,49l-98,44.3c-53.7,23.3-128.3,65.4-165.7,91c-35,25.7-74.7,46.7-86.3,46.7c-9.3,0-170.3-79.3-354.7-175c-245-126-350-170.3-389.7-161c-67.7,16.3-70,44.3-9.3,186.7c25.7,60.7,44.3,114.3,39.7,119c-4.7,4.7-46.7-9.3-93.3-28c-46.7-18.7-95.7-35-112-35c-14,0,53.7,154,151.7,340.7l177.3,338.3l-95.7,175c-51.3,95.7-98,172.7-98,172.7C1444-2316.7,1166.3-2844,828-3488z"/></g></g>
</svg>